<svg width="412" height="268" viewBox="0 0 412 268" fill="none" xmlns="http://www.w3.org/2000/svg">
<rect width="412" height="268" rx="12" transform="matrix(-1 0 0 1 412 0)" fill="#DDE1FF"/>
<path d="M360.679 103.46C353.719 87.8325 342.107 73.2646 330.035 63.2721C300.917 39.2672 233.228 28.6848 186.495 38.7461C146.644 47.3356 132.735 73.2417 97.8882 85.6565C65.8568 97.0748 36.7969 106.386 25.5561 128.152C1.89177 174.14 95.4544 210.801 165.333 199.159C187.394 195.482 206.054 187.735 229.591 187.706C277.331 187.609 294.153 191.445 332.782 176.333C370.893 161.405 372.868 130.82 360.679 103.46Z" fill="#5667FD"/>
<path opacity="0.8" d="M360.679 103.46C353.719 87.8325 342.107 73.2646 330.035 63.2721C300.917 39.2672 233.228 28.6848 186.495 38.7461C146.644 47.3356 132.735 73.2417 97.8882 85.6565C65.8568 97.0748 36.7969 106.386 25.5561 128.152C1.89177 174.14 95.4544 210.801 165.333 199.159C187.394 195.482 206.054 187.735 229.591 187.706C277.331 187.609 294.153 191.445 332.782 176.333C370.893 161.405 372.868 130.82 360.679 103.46Z" fill="white"/>
<path d="M392.24 203.91C388.388 203.91 388.388 206.419 384.528 206.419C380.667 206.419 380.676 203.91 376.825 203.91C372.974 203.91 372.915 206.419 369.113 206.419C365.311 206.419 365.252 203.91 361.401 203.91C357.55 203.91 357.55 206.419 353.689 206.419C349.828 206.419 349.837 203.91 345.976 203.91C342.115 203.91 342.125 206.419 338.274 206.419C334.423 206.419 334.413 203.91 330.562 203.91C326.711 203.91 326.711 206.419 322.85 206.419C318.989 206.419 318.999 203.91 315.147 203.91C311.296 203.91 311.286 206.419 307.435 206.419C303.584 206.419 303.584 203.91 299.733 203.91C295.882 203.91 295.823 206.419 292.021 206.419C288.218 206.419 288.169 203.91 284.318 203.91C280.467 203.91 280.467 206.419 276.606 206.419C272.745 206.419 272.755 203.91 268.904 203.91C265.052 203.91 265.052 206.419 261.201 206.419C257.35 206.419 257.34 203.91 253.489 203.91C249.638 203.91 249.638 206.419 245.787 206.419C241.935 206.419 241.935 203.91 238.084 203.91C234.233 203.91 234.233 206.419 230.372 206.419C226.511 206.419 226.521 203.91 222.67 203.91C218.818 203.91 218.818 206.419 214.958 206.419C211.097 206.419 211.106 203.91 207.255 203.91C203.404 203.91 203.345 206.419 199.543 206.419C195.741 206.419 195.692 203.91 191.841 203.91C187.989 203.91 187.98 206.419 184.128 206.419C180.277 206.419 180.277 203.91 176.426 203.91C172.575 203.91 172.565 206.419 168.714 206.419C164.863 206.419 164.863 203.91 161.011 203.91C157.16 203.91 157.17 206.419 153.26 206.419C149.35 206.419 149.409 203.91 145.558 203.91C141.707 203.91 141.707 206.419 137.855 206.419C134.004 206.419 133.994 203.91 130.143 203.91C126.292 203.91 126.292 206.419 122.441 206.419C118.59 206.419 118.58 203.91 114.729 203.91C110.877 203.91 110.877 206.419 107.026 206.419C103.175 206.419 103.175 203.91 99.3141 203.91C95.4531 203.91 95.4629 206.419 91.6117 206.419C87.7605 206.419 87.7605 203.91 83.9093 203.91C80.0581 203.91 80.0581 206.419 76.1971 206.419C72.3362 206.419 72.3459 203.91 68.4947 203.91C64.6435 203.91 64.6435 206.419 60.7923 206.419C56.9411 206.419 56.9411 203.91 53.0802 203.91C49.2192 203.91 49.229 206.419 45.3778 206.419C41.5266 206.419 41.5266 203.91 37.6754 203.91C33.8242 203.91 33.8242 206.419 29.9632 206.419C26.1022 206.419 26.1902 203.91 22.2804 203.91C18.3705 203.91 18.4292 206.419 14.578 206.419H14.2065V214.779H398.877V206.333C396.071 205.903 395.671 203.91 392.24 203.91Z" fill="#5667FD"/>
<path d="M98.9131 213.182V190.042" stroke="#263238" stroke-width="1.65533" stroke-miterlimit="10"/>
<path d="M80.6837 191.113L98.9134 198.947" stroke="#263238" stroke-width="1.65533" stroke-miterlimit="10"/>
<path d="M98.9131 206.773L119.577 190.757" stroke="#263238" stroke-width="1.65533" stroke-miterlimit="10"/>
<path d="M154.54 191.8V184.424C154.542 180.346 153.172 176.308 150.509 172.541C147.846 168.773 143.943 165.35 139.021 162.466C134.1 159.582 128.257 157.295 121.826 155.734C115.396 154.173 108.503 153.37 101.542 153.37C94.5819 153.37 87.6894 154.173 81.2588 155.734C74.8282 157.295 68.9853 159.582 64.0638 162.466C59.1424 165.35 55.2388 168.773 52.576 172.541C49.9132 176.308 48.5433 180.346 48.5446 184.424V191.8H154.54Z" fill="#5667FD"/>
<path opacity="0.5" d="M154.54 191.8V184.424C154.542 180.346 153.172 176.308 150.509 172.541C147.846 168.773 143.943 165.35 139.021 162.466C134.1 159.582 128.257 157.295 121.826 155.734C115.396 154.173 108.503 153.37 101.542 153.37C94.5819 153.37 87.6894 154.173 81.2588 155.734C74.8282 157.295 68.9853 159.582 64.0638 162.466C59.1424 165.35 55.2388 168.773 52.576 172.541C49.9132 176.308 48.5433 180.346 48.5446 184.424V191.8H154.54Z" fill="white"/>
<path opacity="0.1" d="M48.545 191.799H154.541V184.424C154.542 179.934 152.874 175.498 149.654 171.425L149.36 171.585C148.798 170.871 147.9 170.265 146.772 169.839C145.644 169.412 144.332 169.183 142.989 169.177C141.646 169.171 140.329 169.389 139.189 169.805C138.05 170.221 137.137 170.819 136.556 171.528C135.88 171.234 135.061 171.075 134.219 171.075C133.395 171.067 132.588 171.216 131.922 171.502C131.257 171.787 130.769 172.193 130.534 172.656C130.172 172.352 129.689 172.104 129.128 171.933C128.566 171.763 127.942 171.675 127.309 171.677C126.426 171.675 125.568 171.849 124.875 172.169C124.65 171.719 124.195 171.321 123.572 171.027C122.948 170.734 122.186 170.559 121.388 170.527C120.59 170.496 119.795 170.608 119.109 170.849C118.423 171.091 117.88 171.449 117.554 171.877C116.894 171.614 116.113 171.475 115.315 171.476C114.352 171.471 113.419 171.675 112.696 172.049C112.157 171.339 111.288 170.732 110.188 170.298C109.089 169.863 107.803 169.619 106.477 169.593C105.151 169.566 103.84 169.759 102.693 170.149C101.545 170.539 100.608 171.11 99.9888 171.797C99.6227 171.507 99.1451 171.272 98.5948 171.111C98.0445 170.95 97.437 170.867 96.8218 170.869C95.993 170.86 95.1819 171.011 94.5141 171.299C93.8463 171.586 93.3588 171.995 93.127 172.461C92.8418 172.044 92.3469 171.688 91.708 171.439C91.069 171.191 90.3163 171.062 89.5495 171.07C88.9929 171.072 88.4433 171.143 87.9376 171.279C87.4319 171.416 86.9817 171.614 86.6171 171.86C86.3009 171.445 85.781 171.094 85.1235 170.853C84.466 170.611 83.7007 170.49 82.9251 170.504C82.1494 170.518 81.3985 170.667 80.7678 170.932C80.1372 171.197 79.6555 171.566 79.3839 171.992C78.6608 171.57 77.7923 171.244 76.8365 171.034C75.8807 170.825 74.8597 170.738 73.8417 170.779C72.8237 170.819 71.8324 170.987 70.9339 171.27C70.0354 171.553 69.2505 171.946 68.6318 172.421C68.4557 171.918 67.9834 171.467 67.2975 171.146C66.6115 170.826 65.7553 170.657 64.8784 170.669C64.1172 170.662 63.3702 170.79 62.7341 171.035C62.098 171.28 61.6021 171.631 61.3106 172.043C60.9357 171.824 60.4885 171.651 59.9962 171.536C59.5038 171.421 58.9766 171.365 58.4467 171.373C58.0718 171.375 57.6996 171.41 57.3421 171.476C56.7896 170.78 55.8989 170.194 54.7812 169.793C50.6676 174.292 48.5217 179.319 48.5352 184.424L48.545 191.799Z" fill="#263238"/>
<path opacity="0.1" d="M154.541 184.425C154.544 182.373 154.2 180.327 153.515 178.315C153.026 178.273 152.533 178.252 152.039 178.252C148.52 178.252 145.519 179.225 144.219 180.605C143.356 180.305 142.369 180.149 141.365 180.153C140.43 180.116 139.498 180.248 138.694 180.53C137.89 180.813 137.254 181.233 136.869 181.733C136.378 181.414 135.773 181.16 135.098 180.991C134.423 180.822 133.693 180.741 132.959 180.754C131.922 180.752 130.905 180.923 130.026 181.247C129.606 180.285 127.72 179.529 125.462 179.529C124.583 179.501 123.708 179.617 122.935 179.865C122.163 180.113 121.525 180.482 121.093 180.932C120.26 180.665 119.324 180.527 118.375 180.531C117.234 180.521 116.115 180.721 115.179 181.104C113.986 179.655 110.917 178.624 107.291 178.624C103.889 178.624 100.957 179.54 99.6372 180.852C99.1401 180.547 98.5397 180.308 97.8746 180.148C97.2096 179.988 96.4948 179.912 95.7763 179.924C94.8373 179.887 93.9015 180.02 93.0956 180.304C92.2897 180.589 91.6525 181.012 91.2702 181.516C90.8349 181.07 90.1968 180.704 89.427 180.458C88.6572 180.212 87.7861 180.097 86.9107 180.124C85.5781 180.111 84.2861 180.393 83.2941 180.915C82.853 180.48 82.2172 180.124 81.4556 179.886C80.6941 179.648 79.8358 179.536 78.9737 179.563C78.0554 179.529 77.1407 179.657 76.3467 179.929C75.5526 180.201 74.9154 180.606 74.5165 181.092C72.7634 180.275 70.5788 179.842 68.3389 179.867C67.0502 179.845 65.7679 179.98 64.5732 180.264C63.3786 180.548 62.2976 180.974 61.3989 181.516C61.0275 180.525 59.1312 179.764 56.8244 179.764C55.9515 179.737 55.083 179.852 54.314 180.095C53.545 180.339 52.9053 180.701 52.4649 181.144C51.5013 180.691 50.2982 180.45 49.0634 180.462C48.7765 181.778 48.6329 183.104 48.6333 184.431V191.806H154.541V184.425Z" fill="#263238"/>
<path d="M313.603 213.182V190.042" stroke="#263238" stroke-width="1.65533" stroke-miterlimit="10"/>
<path d="M295.374 191.113L313.603 198.947" stroke="#263238" stroke-width="1.65533" stroke-miterlimit="10"/>
<path d="M313.603 206.773L334.266 190.757" stroke="#263238" stroke-width="1.65533" stroke-miterlimit="10"/>
<path d="M369.278 191.8V184.424C369.28 180.346 367.91 176.308 365.247 172.541C362.584 168.773 358.681 165.35 353.759 162.466C348.838 159.582 342.995 157.295 336.564 155.734C330.134 154.173 323.241 153.37 316.281 153.37C309.32 153.37 302.427 154.173 295.997 155.734C289.566 157.295 283.723 159.582 278.802 162.466C273.88 165.35 269.977 168.773 267.314 172.541C264.651 176.308 263.281 180.346 263.283 184.424V191.8H369.278Z" fill="#5667FD"/>
<path opacity="0.5" d="M369.278 191.8V184.424C369.28 180.346 367.91 176.308 365.247 172.541C362.584 168.773 358.681 165.35 353.759 162.466C348.838 159.582 342.995 157.295 336.564 155.734C330.134 154.173 323.241 153.37 316.281 153.37C309.32 153.37 302.427 154.173 295.997 155.734C289.566 157.295 283.723 159.582 278.802 162.466C273.88 165.35 269.977 168.773 267.314 172.541C264.651 176.308 263.281 180.346 263.283 184.424V191.8H369.278Z" fill="white"/>
<path opacity="0.1" d="M263.234 191.799H369.279V184.424C369.28 179.934 367.612 175.498 364.392 171.425L364.098 171.585C363.536 170.871 362.638 170.265 361.51 169.839C360.381 169.412 359.07 169.183 357.727 169.177C356.384 169.171 355.067 169.389 353.927 169.805C352.788 170.221 351.875 170.819 351.294 171.528C350.618 171.234 349.799 171.075 348.957 171.075C348.133 171.067 347.326 171.216 346.66 171.502C345.995 171.787 345.507 172.193 345.272 172.656C344.91 172.352 344.427 172.104 343.866 171.933C343.304 171.763 342.68 171.675 342.047 171.677C341.164 171.675 340.306 171.849 339.613 172.169C339.388 171.719 338.933 171.321 338.31 171.027C337.686 170.734 336.924 170.559 336.126 170.527C335.328 170.496 334.533 170.608 333.847 170.849C333.161 171.091 332.618 171.449 332.292 171.877C331.632 171.614 330.851 171.475 330.053 171.476C329.09 171.471 328.157 171.675 327.434 172.049C326.895 171.339 326.026 170.732 324.926 170.298C323.827 169.863 322.54 169.619 321.215 169.593C319.889 169.566 318.578 169.759 317.43 170.149C316.283 170.539 315.346 171.11 314.727 171.797C314.361 171.507 313.883 171.272 313.333 171.111C312.783 170.95 312.175 170.867 311.56 170.869C310.731 170.86 309.92 171.011 309.252 171.299C308.584 171.586 308.097 171.995 307.865 172.461C307.58 172.044 307.085 171.688 306.446 171.439C305.807 171.191 305.054 171.062 304.287 171.07C303.731 171.072 303.181 171.143 302.676 171.279C302.17 171.416 301.72 171.614 301.355 171.86C301.039 171.445 300.519 171.094 299.861 170.853C299.204 170.611 298.439 170.49 297.663 170.504C296.887 170.518 296.136 170.667 295.506 170.932C294.875 171.197 294.393 171.566 294.122 171.992C293.399 171.57 292.53 171.244 291.574 171.034C290.619 170.825 289.598 170.738 288.58 170.779C287.562 170.819 286.57 170.987 285.672 171.27C284.773 171.553 283.989 171.946 283.37 172.421C283.194 171.918 282.721 171.467 282.035 171.146C281.349 170.826 280.493 170.657 279.616 170.669C278.855 170.662 278.108 170.79 277.472 171.035C276.836 171.28 276.34 171.631 276.049 172.043C275.683 171.827 275.247 171.657 274.767 171.541C274.287 171.425 273.772 171.366 273.253 171.367C272.878 171.37 272.506 171.404 272.149 171.471C271.595 170.773 270.701 170.187 269.578 169.787C265.47 174.288 263.328 179.314 263.342 184.418L263.234 191.799Z" fill="#263238"/>
<path opacity="0.1" d="M369.28 184.425C369.282 182.373 368.939 180.327 368.253 178.315C367.765 178.273 367.271 178.252 366.777 178.252C363.259 178.252 360.258 179.225 358.958 180.605C358.094 180.305 357.107 180.149 356.103 180.153C355.168 180.116 354.236 180.248 353.433 180.53C352.629 180.813 351.992 181.233 351.607 181.733C351.116 181.414 350.512 181.16 349.837 180.991C349.161 180.822 348.431 180.741 347.697 180.754C346.66 180.752 345.643 180.923 344.765 181.247C344.345 180.285 342.458 179.529 340.2 179.529C339.321 179.501 338.446 179.617 337.674 179.865C336.902 180.113 336.263 180.482 335.831 180.932C334.998 180.665 334.063 180.527 333.114 180.531C331.972 180.521 330.854 180.721 329.917 181.104C328.725 179.655 325.656 178.624 322.029 178.624C318.628 178.624 315.695 179.54 314.376 180.852C313.879 180.547 313.278 180.308 312.613 180.148C311.948 179.988 311.233 179.912 310.515 179.924C309.576 179.887 308.64 180.02 307.834 180.304C307.028 180.589 306.391 181.012 306.009 181.516C305.573 181.07 304.935 180.704 304.165 180.458C303.396 180.212 302.525 180.097 301.649 180.124C300.317 180.111 299.025 180.393 298.033 180.915C297.597 180.469 296.959 180.103 296.189 179.857C295.42 179.611 294.548 179.496 293.673 179.523C292.755 179.489 291.84 179.617 291.046 179.889C290.252 180.161 289.615 180.566 289.216 181.052C287.463 180.235 285.278 179.802 283.038 179.827C281.75 179.805 280.467 179.94 279.273 180.224C278.078 180.508 276.997 180.934 276.098 181.476C275.727 180.485 273.831 179.723 271.524 179.723C270.651 179.697 269.782 179.812 269.013 180.055C268.244 180.298 267.605 180.661 267.164 181.104C266.201 180.651 264.997 180.41 263.763 180.422C263.476 181.738 263.332 183.064 263.333 184.39V191.766H369.28V184.425Z" fill="#263238"/>
<path d="M287.476 54.5057C283.566 53.2688 281.846 54.2995 280.438 53.2688C279.031 52.238 284.348 49.5524 273.752 46.8724C273.752 46.8724 273.048 41.1003 258.621 40.8941C244.194 40.688 248.074 46.6663 244.164 48.1093C240.255 49.5524 239.277 47.2847 235.367 48.7278C231.457 50.1708 233.256 53.0626 230.089 53.4749C226.922 53.8872 222.699 51.6196 218.829 53.0626C214.958 54.5057 214.919 55.7426 213.189 55.7426C211.459 55.7426 207.91 54.918 205.799 55.7426C203.688 56.5672 201.225 57.5979 201.225 57.5979H290.271C290.271 57.5979 291.347 55.7426 287.476 54.5057Z" fill="white"/>
<path d="M343.866 106.983C341.188 106.129 339.956 106.845 338.979 106.129C338.001 105.413 341.647 103.564 334.355 101.714C334.355 101.714 333.866 97.7058 323.896 97.5855C313.926 97.4653 316.604 101.594 313.936 102.567C311.268 103.541 310.525 101.995 307.856 102.997C305.188 103.999 306.4 105.986 304.21 106.272C302.021 106.559 299.098 104.99 296.391 105.986C293.683 106.983 293.712 107.841 292.481 107.841C291.249 107.841 288.835 107.269 287.369 107.841C285.902 108.414 284.211 109.124 284.211 109.124H345.821C345.821 109.124 346.573 107.841 343.866 106.983Z" fill="white"/>
<path d="M307.105 98.9093C305.423 98.3768 304.661 98.8234 304.055 98.3768C303.449 97.9301 305.736 96.7619 301.122 95.5995C301.122 95.5995 300.81 93.0913 294.544 93.0054C288.279 92.9195 289.96 95.5079 288.279 96.1378C286.597 96.7677 286.148 95.777 284.467 96.4069C282.785 97.0368 283.548 98.2851 282.169 98.4627C280.791 98.6402 278.963 97.661 277.282 98.2851C275.601 98.9093 275.601 99.4304 274.839 99.4304C274.076 99.4304 272.541 99.0754 271.623 99.4304C270.704 99.7855 269.668 100.238 269.668 100.238H308.326C308.432 99.9673 308.366 99.6834 308.142 99.439C307.917 99.1946 307.548 99.0064 307.105 98.9093Z" fill="white"/>
<path d="M169.761 118.865C163.749 116.947 161.022 118.545 158.833 116.947C156.643 115.349 164.844 111.186 148.452 107.023C148.452 107.023 147.357 98.0556 124.993 97.7407C102.629 97.4257 108.601 106.702 102.589 108.941C96.5781 111.18 94.9359 107.664 88.905 109.904C82.8741 112.143 85.6305 116.626 80.7139 117.268C75.7972 117.909 69.2385 114.404 63.2271 116.626C57.2157 118.848 57.2157 120.789 54.4299 120.789C51.6442 120.789 46.2388 119.507 42.9545 120.789C39.6703 122.072 35.8484 123.653 35.8484 123.653H174.14C174.14 123.653 175.743 120.789 169.761 118.865Z" fill="white"/>
<path d="M179.653 166.778C179.653 166.778 180.074 173.896 183.006 178.397C185.939 182.898 198.509 195.662 201.578 198.852C204.647 202.041 205.488 202.94 205.488 202.94C203.049 204.699 200.765 206.53 198.646 208.426C196.554 210.47 192.781 211.535 193.621 212.354C194.462 213.173 195.439 213.087 199.906 212.434C204.373 211.782 205.771 210.304 209.407 208.586C213.044 206.868 215.966 206.788 216.103 205.477C216.24 204.166 211.636 201.715 210.659 200.157C209.681 198.6 204.1 191.734 200.884 184.284C197.668 176.834 194.599 174.469 194.462 173.57C194.325 172.671 195.713 167.019 195.713 167.019L179.653 166.778Z" fill="white"/>
<path d="M216.044 205.257C215.732 203.912 211.548 201.632 210.619 200.155C209.691 198.678 204.061 191.732 200.845 184.282C197.629 176.832 194.56 174.467 194.423 173.568C194.286 172.669 195.674 167.017 195.674 167.017L179.653 166.776C179.653 166.776 179.8 169.33 180.553 172.348C181.452 172.428 182.508 172.497 183.769 172.543C186.495 172.666 189.237 172.49 191.852 172.021C191.852 172.021 190.953 174.123 193.944 179.557C196.935 184.992 206.514 198.145 208.606 200.424C209.71 201.667 213.141 203.677 216.044 205.257Z" fill="#5667FD"/>
<path opacity="0.5" d="M216.044 205.257C215.732 203.912 211.548 201.632 210.619 200.155C209.691 198.678 204.061 191.732 200.845 184.282C197.629 176.832 194.56 174.467 194.423 173.568C194.286 172.669 195.674 167.017 195.674 167.017L179.653 166.776C179.653 166.776 179.8 169.33 180.553 172.348C181.452 172.428 182.508 172.497 183.769 172.543C186.495 172.666 189.237 172.49 191.852 172.021C191.852 172.021 190.953 174.123 193.944 179.557C196.935 184.992 206.514 198.145 208.606 200.424C209.71 201.667 213.141 203.677 216.044 205.257Z" fill="white"/>
<path d="M179.653 166.778C179.653 166.778 180.074 173.896 183.006 178.397C185.939 182.898 198.509 195.662 201.578 198.852C204.647 202.041 205.488 202.94 205.488 202.94C203.049 204.699 200.765 206.53 198.646 208.426C196.554 210.47 192.781 211.535 193.621 212.354C194.462 213.173 195.439 213.087 199.906 212.434C204.373 211.782 205.771 210.304 209.407 208.586C213.044 206.868 215.966 206.788 216.103 205.477C216.24 204.166 211.636 201.715 210.659 200.157C209.681 198.6 204.1 191.734 200.884 184.284C197.668 176.834 194.599 174.469 194.462 173.57C194.325 172.671 195.713 167.019 195.713 167.019L179.653 166.778Z" stroke="#263238" stroke-width="0.75" stroke-linecap="round" stroke-linejoin="round"/>
<path d="M216.064 205.477C216.142 204.801 214.94 203.816 213.63 202.808L207.13 206.135C207.13 206.135 206.426 204.99 205.595 203.925C205.453 203.694 205.194 203.494 204.852 203.352C202.622 204.969 200.537 206.653 198.606 208.397C196.515 210.441 192.742 211.506 193.582 212.325C194.423 213.144 195.4 213.058 199.867 212.406C204.334 211.753 205.732 210.275 209.368 208.557C213.004 206.839 215.927 206.788 216.064 205.477Z" fill="#263238" stroke="#263238" stroke-width="0.75" stroke-linecap="round" stroke-linejoin="round"/>
<path d="M211.596 166.039C213.094 168.72 215.258 171.258 218.018 173.569C222.905 177.824 242.181 189.769 243.999 191.321C245.817 192.873 249.033 199.424 250.284 201.714C251.535 204.005 255.455 203.106 256.852 200.157C258.25 197.208 250.43 190.668 248.886 189.357C247.342 188.046 239.111 182.159 234.087 174.955C229.063 167.751 226.121 163.668 226.121 163.668C226.121 163.668 213.551 165.14 211.596 166.039Z" fill="white"/>
<path d="M248.888 189.357C247.353 188.051 239.113 182.159 234.089 174.955C229.065 167.751 226.123 163.668 226.123 163.668C226.123 163.668 213.552 165.14 211.597 166.039C212.49 167.682 213.669 169.267 215.116 170.769C218.426 170.608 221.672 170.142 224.734 169.389C224.734 169.389 231.919 178.86 237.011 183.069C239.709 185.303 245.545 188.332 250.422 190.68C249.748 190.084 249.191 189.615 248.888 189.357Z" fill="#5667FD"/>
<path opacity="0.5" d="M248.888 189.357C247.353 188.051 239.113 182.159 234.089 174.955C229.065 167.751 226.123 163.668 226.123 163.668C226.123 163.668 213.552 165.14 211.597 166.039C212.49 167.682 213.669 169.267 215.116 170.769C218.426 170.608 221.672 170.142 224.734 169.389C224.734 169.389 231.919 178.86 237.011 183.069C239.709 185.303 245.545 188.332 250.422 190.68C249.748 190.084 249.191 189.615 248.888 189.357Z" fill="white"/>
<path d="M211.596 166.039C213.094 168.72 215.258 171.258 218.018 173.569C222.905 177.824 242.181 189.769 243.999 191.321C245.817 192.873 249.033 199.424 250.284 201.714C251.535 204.005 255.455 203.106 256.852 200.157C258.25 197.208 250.43 190.668 248.886 189.357C247.342 188.046 239.111 182.159 234.087 174.955C229.063 167.751 226.121 163.668 226.121 163.668C226.121 163.668 213.551 165.14 211.596 166.039Z" stroke="#263238" stroke-width="0.75" stroke-linecap="round" stroke-linejoin="round"/>
<path d="M250.284 201.713C251.545 204.004 255.454 203.105 256.852 200.156C258.25 197.207 250.43 190.667 248.886 189.356L248.475 189.018C249.16 190.089 249.863 191.16 249.863 191.16C249.44 190.901 248.901 190.717 248.308 190.63C247.715 190.543 247.092 190.556 246.511 190.667C244.282 190.994 245.396 192.958 245.396 192.958V193.009C247.156 195.598 249.306 199.933 250.284 201.713Z" fill="#263238" stroke="#263238" stroke-width="0.75" stroke-linecap="round" stroke-linejoin="round"/>
<path d="M156.194 149.381C156.194 149.381 158.364 146.483 166.438 145.636C174.512 144.788 184.697 149.644 188.841 150.509C192.986 151.373 195.293 135.74 191.158 121.058C187.023 106.376 181.217 105.293 172.518 112.085C163.818 118.876 157.035 145.258 156.194 149.381Z" fill="#263238" stroke="#263238" stroke-width="0.75" stroke-linecap="round" stroke-linejoin="round"/>
<path d="M268.601 107.126C256.735 93.7031 247.928 91.905 240.812 88.8013C233.696 85.6977 233.266 85.6118 227.265 83.075C221.263 80.5382 209.367 77.5834 205.066 76.9306C203.863 76.7288 202.592 76.7075 201.371 76.8686C200.15 77.0297 199.017 77.368 198.078 77.8525C198.078 77.8525 191.929 78.9978 184.393 83.4758C176.857 87.9538 183.269 91.739 183.269 91.739C183.269 91.739 181.314 96.7324 191.235 102.459C201.157 108.185 206.875 124.883 240.108 125.862C273.342 126.842 280.458 120.543 268.601 107.126ZM186.201 87.8966C183.856 89.8149 183.836 90.7025 184.08 91.0804C184.171 91.1685 184.272 91.2528 184.383 91.3324C184.238 91.2702 184.131 91.1816 184.08 91.0804C183.582 90.5631 183.266 89.9926 183.15 89.4025C183.034 88.8124 183.121 88.2147 183.406 87.6446C184.383 85.2739 192.066 82.9834 192.066 82.9834C192.066 82.9834 189.671 85.0334 186.182 87.8966H186.201Z" fill="#263238" stroke="#263238" stroke-width="0.75" stroke-linecap="round" stroke-linejoin="round"/>
<path d="M198.225 98.696C196.48 98.7093 194.741 98.5723 193.064 98.2895C189.848 97.797 187.199 98.2895 183.7 100.66C180.2 103.031 176.017 109.416 176.017 114.163C176.017 118.91 181.051 124.47 181.051 124.47C181.051 124.47 175.46 129.137 173.231 137.973C171.003 146.809 174.345 168.163 174.345 168.163C174.345 168.163 189.154 170.213 204.373 168.735C213.801 167.795 222.995 166.173 231.742 163.908C231.742 163.908 232.299 154.339 225.31 141.735C221.697 135.014 217.501 128.405 212.74 121.934C212.74 121.934 216.376 113.504 216.513 107.778C216.65 102.052 213.16 100.168 210.512 99.4347C207.863 98.7018 198.225 98.696 198.225 98.696Z" fill="#263238"/>
<path opacity="0.3" d="M198.225 98.698C196.48 98.7113 194.741 98.5743 193.064 98.2915C189.848 97.799 187.199 98.2915 183.7 100.662C180.2 103.033 176.017 109.418 176.017 114.165C176.017 118.912 181.051 124.472 181.051 124.472C181.051 124.472 175.46 129.139 173.231 137.975C171.003 146.811 174.345 168.165 174.345 168.165C174.345 168.165 189.154 170.215 204.373 168.737C213.801 167.797 222.995 166.175 231.742 163.91C231.742 163.91 232.299 154.341 225.31 141.737C221.697 135.016 217.501 128.407 212.74 121.936C212.74 121.936 216.376 113.506 216.513 107.78C216.65 102.054 213.16 100.17 210.512 99.4367C207.863 98.7038 198.225 98.698 198.225 98.698Z" fill="white" stroke="#263238" stroke-width="0.75" stroke-linecap="round" stroke-linejoin="round"/>
<path d="M198.225 98.696C196.48 98.7093 194.741 98.5723 193.064 98.2895C189.848 97.797 187.199 98.2895 183.7 100.66C180.2 103.031 176.017 109.416 176.017 114.163C176.017 118.91 181.051 124.47 181.051 124.47C181.051 124.47 175.46 129.137 173.231 137.973C171.003 146.809 174.345 168.163 174.345 168.163C174.345 168.163 189.154 170.213 204.373 168.735C213.801 167.795 222.995 166.173 231.742 163.908C231.742 163.908 232.299 154.339 225.31 141.735C221.697 135.014 217.501 128.405 212.74 121.934C212.74 121.934 216.376 113.504 216.513 107.778C216.65 102.052 213.16 100.168 210.512 99.4347C207.863 98.7018 198.225 98.696 198.225 98.696Z" stroke="#263238" stroke-width="0.75" stroke-linecap="round" stroke-linejoin="round"/>
<path d="M194.422 116.614C194.422 116.614 196.65 120.623 202.662 122.427" stroke="#263238" stroke-width="0.75" stroke-linecap="round" stroke-linejoin="round"/>
<path d="M197.071 92.9704C196.746 94.7329 196.043 96.4645 194.979 98.1241C193.445 100.168 192.467 99.6817 191.069 103.364C189.672 107.046 194.422 111.953 199.73 109.909C205.037 107.865 208.39 103.69 208.106 102.133C207.823 100.575 206.572 100.254 206.572 98.1241C206.613 96.7148 206.941 95.3134 207.549 93.9496C207.549 93.9496 200.287 94.276 197.071 92.9704Z" fill="white"/>
<path d="M197.071 92.9706C196.746 94.7019 196.063 96.4036 195.038 98.0385C196.778 99.1494 200.326 100.392 206.65 98.9604C206.597 98.6829 206.571 98.4037 206.572 98.1244C206.612 96.715 206.94 95.3135 207.55 93.9498C207.55 93.9498 200.287 94.2762 197.071 92.9706Z" fill="#5667FD"/>
<path opacity="0.5" d="M197.071 92.9706C196.746 94.7019 196.063 96.4036 195.038 98.0385C196.778 99.1494 200.326 100.392 206.65 98.9604C206.597 98.6829 206.571 98.4037 206.572 98.1244C206.612 96.715 206.94 95.3135 207.55 93.9498C207.55 93.9498 200.287 94.2762 197.071 92.9706Z" fill="white"/>
<path d="M197.071 92.9704C196.746 94.7329 196.043 96.4645 194.979 98.1241C193.445 100.168 192.467 99.6817 191.069 103.364C189.672 107.046 194.422 111.953 199.73 109.909C205.037 107.865 208.39 103.69 208.106 102.133C207.823 100.575 206.572 100.254 206.572 98.1241C206.613 96.7148 206.941 95.3134 207.549 93.9496C207.549 93.9496 200.287 94.276 197.071 92.9704Z" stroke="#263238" stroke-width="0.75" stroke-linecap="round" stroke-linejoin="round"/>
<path d="M201.266 72.1841C201.266 72.1841 193.299 85.6869 192.742 89.2086C192.611 90.1013 192.793 91.0004 193.278 91.8502C193.763 92.7 194.54 93.4826 195.562 94.1496C196.583 94.8166 197.827 95.3539 199.216 95.7283C200.606 96.1027 202.112 96.3063 203.641 96.3265C210.483 96.4066 215.927 91.7454 215.927 91.7454C215.927 91.7454 218.723 93.0567 222.349 91.585C225.976 90.1134 234.392 77.0973 234.392 77.0973C234.392 77.0973 230.062 72.7567 219.026 71.5313C207.991 70.3059 201.266 72.1841 201.266 72.1841Z" fill="white"/>
<path d="M218.995 71.5314C217.059 71.3157 215.099 71.1837 213.13 71.1363L209.816 78.008C209.816 78.008 214.596 86.1108 214.303 88.3899C214.01 90.669 210.706 95.0496 202.026 95.0496C199.972 95.0592 197.933 94.8436 196.015 94.414C198.037 95.6214 200.791 96.3127 203.678 96.3381C210.52 96.4182 215.964 91.757 215.964 91.757C215.964 91.757 218.76 93.0683 222.386 91.5966C226.013 90.125 234.39 77.0975 234.39 77.0975C234.39 77.0975 230.03 72.7569 218.995 71.5314Z" fill="#5667FD"/>
<path opacity="0.5" d="M218.995 71.5314C217.059 71.3157 215.099 71.1837 213.13 71.1363L209.816 78.008C209.816 78.008 214.596 86.1108 214.303 88.3899C214.01 90.669 210.706 95.0496 202.026 95.0496C199.972 95.0592 197.933 94.8436 196.015 94.414C198.037 95.6214 200.791 96.3127 203.678 96.3381C210.52 96.4182 215.964 91.757 215.964 91.757C215.964 91.757 218.76 93.0683 222.386 91.5966C226.013 90.125 234.39 77.0975 234.39 77.0975C234.39 77.0975 230.03 72.7569 218.995 71.5314Z" fill="white"/>
<path d="M201.266 72.1841C201.266 72.1841 193.299 85.6869 192.742 89.2086C192.611 90.1013 192.793 91.0004 193.278 91.8502C193.763 92.7 194.54 93.4826 195.562 94.1496C196.583 94.8166 197.827 95.3539 199.216 95.7283C200.606 96.1027 202.112 96.3063 203.641 96.3265C210.483 96.4066 215.927 91.7454 215.927 91.7454C215.927 91.7454 218.723 93.0567 222.349 91.585C225.976 90.1134 234.392 77.0973 234.392 77.0973C234.392 77.0973 230.062 72.7567 219.026 71.5313C207.991 70.3059 201.266 72.1841 201.266 72.1841Z" stroke="#263238" stroke-width="0.75" stroke-linecap="round" stroke-linejoin="round"/>
<path d="M205.174 82.2499C204.757 83.0821 203.804 83.7865 202.516 84.2141C200.424 84.8669 198.606 84.7867 199.31 85.4395C199.953 85.8945 200.837 86.2108 201.822 86.3385" stroke="#263238" stroke-width="0.75" stroke-linecap="round" stroke-linejoin="round"/>
<path d="M200.423 87.7308C201.563 88.2206 202.921 88.5051 204.333 88.5497C206.012 88.6262 207.686 88.3679 209.083 87.8167C209.083 87.8167 204.753 90.76 202.515 90.76C200.276 90.76 200.423 87.7308 200.423 87.7308Z" fill="#263238"/>
<path d="M207.686 82.9882C207.686 82.9882 210.198 81.4306 212.153 83.3146" stroke="#263238" stroke-width="0.75" stroke-linecap="round" stroke-linejoin="round"/>
<path d="M199.73 82.2504C199.973 82.0976 200.278 81.9838 200.617 81.9197C200.957 81.8556 201.318 81.8433 201.668 81.884C202.017 81.9248 202.343 82.0172 202.615 82.1524C202.886 82.2877 203.094 82.4614 203.219 82.657" stroke="#263238" stroke-width="0.75" stroke-linecap="round" stroke-linejoin="round"/>
<path d="M199.202 80.5324C199.535 80.1178 200.073 79.7713 200.745 79.5375C201.418 79.3037 202.195 79.1935 202.975 79.2211" stroke="#263238" stroke-width="0.75" stroke-linecap="round" stroke-linejoin="round"/>
<path d="M208.664 79.3068C208.664 79.3068 210.199 78.9746 211.597 80.6124" stroke="#263238" stroke-width="0.75" stroke-linecap="round" stroke-linejoin="round"/>
<path d="M209.778 77.9957C209.778 77.9957 213.688 82.9032 217.324 88.0569C220.96 93.2107 235.759 99.5956 238.301 100.008C240.842 100.42 248.916 92.4777 248.916 92.4777C248.916 92.4777 234.743 86.6139 229.542 84.0656C224.342 81.5174 218.585 78.8146 209.778 77.9957Z" fill="#263238" stroke="#263238" stroke-width="0.75" stroke-linecap="round" stroke-linejoin="round"/>
<path d="M201.157 76.5241L185.244 70.5515C185.244 70.5515 204.793 65.8043 209.68 63.1874C209.68 63.1874 241.243 75.2127 252.835 76.0316C252.835 76.0316 235.104 80.0401 227.001 81.1853L201.157 76.5241Z" fill="#5667FD" stroke="#263238" stroke-width="0.75" stroke-linecap="round" stroke-linejoin="round"/>
<path d="M234.39 77.0973C234.39 77.0973 230.06 72.7567 219.025 71.5313C207.989 70.3059 201.293 72.1841 201.293 72.1841C201.293 72.1841 199.808 74.7037 198.078 77.8532C202.955 77.2003 208.053 77.3993 212.74 78.4259C219.582 79.7887 225.769 82.337 229.542 84.0892C232.152 80.5274 234.39 77.0973 234.39 77.0973Z" fill="#5667FD" stroke="#263238" stroke-width="0.75" stroke-linecap="round" stroke-linejoin="round"/>
<path d="M185.205 70.5516C185.205 70.5516 184.081 75.293 178.216 74.8063C172.351 74.3196 174.443 69.7328 181.149 66.0507C187.854 62.3686 184.785 58.0338 180.308 57.2951" stroke="#263238" stroke-width="0.75" stroke-linecap="round" stroke-linejoin="round"/>
<path d="M181.432 57.4547C181.432 57.4547 179.614 56.4755 175.284 56.1491C170.954 55.8227 163.975 55.0039 164.248 55.3303C164.522 55.6567 164.385 56.4755 164.669 57.0482C164.952 57.6208 165.509 58.3595 167.044 58.3595C168.579 58.3595 179.194 58.1934 180.455 58.1934C181.716 58.1934 181.432 57.4547 181.432 57.4547Z" fill="#263238" stroke="#263238" stroke-width="0.75" stroke-linecap="round" stroke-linejoin="round"/>
<path d="M270.556 78.4016C270.556 78.4016 271.954 86.2581 274.75 89.9402C277.545 93.6223 281.396 101.502 280.751 105.974C280.292 109.221 278.376 109.656 276.841 109.656C275.307 109.656 270.38 107.68 267.204 104.09C261.27 97.3959 263.02 92.4713 264.828 88.543C266.637 84.6147 270.556 78.4016 270.556 78.4016Z" fill="#263238"/>
<path opacity="0.3" d="M270.557 78.4034C270.557 78.4034 271.954 86.26 274.75 89.942C277.545 93.6241 281.24 101.234 280.751 105.976C280.419 109.228 278.376 109.658 276.842 109.658C275.307 109.658 272.511 110.964 267.204 104.092C261.896 97.2202 263.02 92.4731 264.829 88.5448C266.637 84.6165 270.557 78.4034 270.557 78.4034Z" fill="white" stroke="#263238" stroke-width="0.75" stroke-linecap="round" stroke-linejoin="round"/>
<path d="M270.556 78.4016C270.556 78.4016 271.954 86.2581 274.75 89.9402C277.545 93.6223 281.396 101.502 280.751 105.974C280.292 109.221 278.376 109.656 276.841 109.656C275.307 109.656 270.38 107.68 267.204 104.09C261.27 97.3959 263.02 92.4713 264.828 88.543C266.637 84.6147 270.556 78.4016 270.556 78.4016Z" stroke="#263238" stroke-width="0.75" stroke-linecap="round" stroke-linejoin="round"/>
<path d="M270.675 79.3864C270.675 79.3864 279.618 72.3487 281.29 70.3846C282.961 68.4204 285.62 66.3761 287.575 66.2101C289.53 66.044 294.564 68.5006 294.837 70.0582C295.111 71.6158 292.052 73.494 289.53 74.1468C287.894 74.5375 286.092 74.6235 284.369 74.393C284.369 74.393 277.106 82.0835 273.05 85.6854C268.993 89.2873 266.628 90.9251 265.787 91.3316C264.947 91.7382 262.855 89.7798 264.116 87.0769C265.377 84.3741 270.675 79.3864 270.675 79.3864Z" fill="white" stroke="#263238" stroke-width="0.75" stroke-linecap="round" stroke-linejoin="round"/>
<path d="M292.286 67.0577C292.286 67.0577 289.354 69.6346 289.666 70.1213C289.979 70.608 290.976 71.2666 291.572 70.8199C292.169 70.3733 294.505 68.4492 294.427 67.6819C294.348 66.9145 293.351 66.7084 292.286 67.0577Z" fill="white" stroke="#263238" stroke-width="0.75" stroke-linecap="round" stroke-linejoin="round"/>
<path d="M294.349 68.347C294.349 68.347 291.739 70.6375 292.052 71.0441C292.364 71.4507 293.195 72.0233 293.723 71.6568C294.251 71.2903 296.333 69.5724 296.225 68.8967C296.118 68.221 295.287 68.0435 294.349 68.347Z" fill="white" stroke="#263238" stroke-width="0.75" stroke-linecap="round" stroke-linejoin="round"/>
<path d="M290.106 65.3919C290.106 65.3919 286.607 68.4212 287.027 68.9938C287.447 69.5665 288.561 70.3052 289.265 69.8127C289.969 69.3202 292.755 67.0297 292.618 66.1306C292.481 65.2316 291.347 64.9854 290.106 65.3919Z" fill="white" stroke="#263238" stroke-width="0.75" stroke-linecap="round" stroke-linejoin="round"/>
<path d="M287.438 64.0861C287.438 64.0861 283.948 67.1097 284.368 67.688C284.789 68.2664 285.903 68.9936 286.597 68.5012C287.291 68.0087 290.096 65.7239 289.95 64.8191C289.803 63.9143 288.699 63.6738 287.438 64.0861Z" fill="white" stroke="#263238" stroke-width="0.75" stroke-linecap="round" stroke-linejoin="round"/>
<path d="M281.153 71.3711C281.153 71.3711 284.926 65.7249 285.767 65.7249C286.607 65.7249 291.211 67.2767 291.485 68.0154C291.759 68.7541 291.485 68.8343 290.654 68.9145C289.823 68.9946 287.165 68.0956 287.165 68.0956C287.165 68.0956 288.416 69.8135 286.598 71.039C284.78 72.2644 283.245 72.3503 283.245 72.3503" fill="white"/>
<path d="M281.153 71.3711C281.153 71.3711 284.926 65.7249 285.767 65.7249C286.607 65.7249 291.211 67.2767 291.485 68.0154C291.759 68.7541 291.485 68.8343 290.654 68.9145C289.823 68.9946 287.165 68.0956 287.165 68.0956C287.165 68.0956 288.416 69.8135 286.598 71.039C284.78 72.2644 283.245 72.3503 283.245 72.3503" stroke="#263238" stroke-width="0.75" stroke-linecap="round" stroke-linejoin="round"/>
<path d="M155.998 71.5485C155.998 71.5485 148.647 63.9096 147.406 61.8137C146.165 59.7179 143.975 57.5189 142.069 57.2326C140.163 56.9463 134.65 58.9906 134.034 60.5138C133.419 62.037 136.067 64.1272 138.423 64.9632C139.958 65.477 141.725 65.7028 143.486 65.6103C143.486 65.6103 149.038 73.7761 152.284 77.6357C155.529 81.4952 157.523 83.3048 158.266 83.7743C159.008 84.2439 161.511 82.4458 160.846 79.6743C160.181 76.9027 155.998 71.5485 155.998 71.5485Z" fill="white" stroke="#263238" stroke-width="0.75" stroke-linecap="round" stroke-linejoin="round"/>
<path d="M137.222 57.7247C137.222 57.7247 139.616 60.502 139.177 60.9601C138.737 61.4182 137.632 61.9679 137.134 61.5327C136.635 61.0975 134.7 58.9616 134.983 58.2114C135.267 57.4613 136.234 57.3009 137.222 57.7247Z" fill="white" stroke="#263238" stroke-width="0.75" stroke-linecap="round" stroke-linejoin="round"/>
<path d="M134.894 58.8533C134.894 58.8533 136.996 61.2927 136.595 61.7164C136.194 62.1402 135.246 62.604 134.806 62.2032C134.367 61.8023 132.656 59.9413 132.91 59.2827C133.164 58.6242 134.024 58.481 134.894 58.8533Z" fill="white" stroke="#263238" stroke-width="0.75" stroke-linecap="round" stroke-linejoin="round"/>
<path d="M139.753 56.2344C139.753 56.2344 142.559 59.4927 142.021 60.031C141.483 60.5693 140.222 61.2163 139.626 60.6781C139.03 60.1398 136.762 57.6603 137.095 56.7784C137.427 55.8965 138.6 55.7362 139.753 56.2344Z" fill="white" stroke="#263238" stroke-width="0.75" stroke-linecap="round" stroke-linejoin="round"/>
<path d="M142.666 55.1302C142.666 55.1302 145.481 58.3943 144.934 58.9325C144.387 59.4708 143.135 60.1179 142.549 59.5796C141.962 59.0413 139.675 56.5618 140.008 55.68C140.34 54.7981 141.532 54.632 142.666 55.1302Z" fill="white" stroke="#263238" stroke-width="0.75" stroke-linecap="round" stroke-linejoin="round"/>
<path d="M147.329 62.8203C147.329 62.8203 144.807 56.9393 143.976 56.8821C143.145 56.8248 138.238 58.0274 137.798 58.7317C137.358 59.4361 137.622 59.5391 138.443 59.6823C139.264 59.8254 142.08 59.1096 142.08 59.1096C142.08 59.1096 140.467 60.7188 142.001 62.0702C143.536 63.4216 145.041 63.6163 145.041 63.6163" fill="white"/>
<path d="M147.329 62.8203C147.329 62.8203 144.807 56.9393 143.976 56.8821C143.145 56.8248 138.238 58.0274 137.798 58.7317C137.358 59.4361 137.622 59.5391 138.443 59.6823C139.264 59.8254 142.08 59.1096 142.08 59.1096C142.08 59.1096 140.467 60.7188 142.001 62.0702C143.536 63.4216 145.041 63.6163 145.041 63.6163" stroke="#263238" stroke-width="0.75" stroke-linecap="round" stroke-linejoin="round"/>
<path d="M215.818 98.696C215.818 98.696 213.443 96.0791 210.511 96.4857C207.578 96.8922 204.363 102.624 204.363 110.229C204.363 117.834 211.909 132.894 218.047 142.297C224.185 151.699 225.73 165.374 225.173 173.883C224.616 182.393 222.103 183.538 222.797 183.944C223.491 184.351 226.15 184.437 240.822 180.675C255.494 176.913 255.2 172.898 255.2 172.898L252.688 167.172C252.688 167.172 257.859 166.107 266.94 166.193C276.02 166.279 284.671 163.083 284.954 158.663C285.238 154.242 275.18 148.928 270.986 146.878C266.793 144.828 277.203 140.373 255.621 132.396C244.087 128.135 238.026 120.857 235.368 117.748C232.709 114.638 233.139 112.84 235.925 111.449C238.711 110.057 250.46 107.52 258.133 107.767C265.806 108.013 276.851 109.651 276.851 109.651C276.851 109.651 267.77 107.034 267.35 96.7204C267.092 90.5572 268.173 84.3997 270.566 78.3961C270.566 78.3961 266.94 80.3602 260.234 83.9621C253.529 87.564 253.949 88.463 248.642 88.463C243.334 88.463 238.583 89.1158 236.912 91.6526C235.241 94.1894 233.286 95.6611 229.239 95.5809C225.192 95.5007 223.931 93.9432 220.012 95.6611C216.092 97.379 215.818 98.696 215.818 98.696Z" fill="#5667FD" stroke="#263238" stroke-width="0.75" stroke-linecap="round" stroke-linejoin="round"/>
<path d="M215.818 98.6963C215.818 98.6963 210.511 105.488 211.909 115.875C213.306 126.263 221.683 138.374 233.139 146.151C244.595 153.927 251.848 166.279 251.848 166.279" stroke="#263238" stroke-width="0.75" stroke-linecap="round" stroke-linejoin="round"/>
<path d="M226.678 120.05C226.678 120.05 230.451 129.298 241.066 136.988C251.682 144.679 268.719 146.643 268.719 146.643" stroke="#263238" stroke-width="0.75" stroke-linecap="round" stroke-linejoin="round"/>
<path d="M223.745 109.417C223.745 109.417 222.074 112.446 225.984 117.354C229.894 122.261 230.871 122.92 230.871 122.92" stroke="#263238" stroke-width="0.75" stroke-linecap="round" stroke-linejoin="round"/>
<path d="M235.368 111.541C232.896 112.835 230.861 114.389 229.366 116.122" stroke="#263238" stroke-width="0.75" stroke-linecap="round" stroke-linejoin="round"/>
<path d="M258.104 107.778C259.541 107.824 261.095 107.922 262.669 108.042C261.399 107.735 260.278 107.248 259.406 106.626C258.535 106.003 257.94 105.264 257.674 104.474C256.247 101.285 260.665 92.4489 262.562 88.6924C263.717 86.3802 264.413 83.9975 264.634 81.5918L260.529 83.8021C260.197 85.2486 259.681 86.6785 258.984 88.0797C255.553 94.9227 252.592 101.714 254.097 105.03C254.517 106.015 255.242 106.947 256.237 107.778C256.873 107.761 257.498 107.761 258.104 107.778Z" fill="#263238"/>
<path d="M191.383 98.8633C191.383 98.8633 192.781 96.2406 189.985 94.935C187.19 93.6294 184.267 95.5878 184.267 95.5878C181.756 94.6993 179.76 93.3883 178.539 91.8256C176.164 89.0426 178.959 87.2445 173.505 83.2361C168.051 79.2276 164.571 78.0022 165.969 74.2399C167.367 70.4777 173.232 67.6947 169.038 66.057C164.845 64.4192 154.65 64.4994 147.114 69.4928C139.578 74.4862 140.408 77.2635 137.476 79.1474C134.544 81.0314 128.112 83.4021 132.022 87.0842C135.932 90.7662 142.5 92.1577 148.639 92.7304C154.777 93.303 163.584 97.6379 165.539 102.465C167.494 107.293 164.982 112.939 161.209 117.526C157.436 122.112 146.821 128.159 143.614 137.488C140.408 146.816 150.457 151.643 152.275 155.325C154.093 159.007 156.605 168.416 153.673 173.736C151.861 176.945 148.059 179.638 143.018 181.283C143.018 181.283 147.075 184.799 157.123 185.452C167.171 186.105 169.136 185.452 169.977 182.915C170.817 180.378 171.795 171.869 168.442 162.787C165.089 153.705 157.827 149.616 162.577 141.599C167.328 133.582 171.795 123.922 176.956 116.884C182.117 109.846 191.383 98.8633 191.383 98.8633Z" fill="#5667FD" stroke="#263238" stroke-width="0.75" stroke-linecap="round" stroke-linejoin="round"/>
<path d="M171.09 94.848C171.09 94.848 173.886 95.014 172.351 99.1885C170.817 103.363 165.509 110.888 165.509 110.888" stroke="#263238" stroke-width="0.75" stroke-linecap="round" stroke-linejoin="round"/>
<path d="M151.962 154.58C151.962 154.58 149.029 151.717 150.564 144.519C152.099 137.321 158.149 127.992 163.036 119.724C167.924 111.455 170.152 108.351 170.152 108.351" stroke="#263238" stroke-width="0.75" stroke-linecap="round" stroke-linejoin="round"/>
<path d="M184.92 96.3252C184.92 96.3252 184.92 97.877 178.352 105.814C171.783 113.751 168.44 120.296 168.303 124.963" stroke="#263238" stroke-width="0.75" stroke-linecap="round" stroke-linejoin="round"/>
<path d="M144.317 82.6616C145.49 82.089 146.702 81.5163 147.797 80.9151C150.935 79.1972 152.186 77.1987 153.291 75.4636C154.268 73.9575 155.07 72.6519 156.976 71.8388C159.263 70.8481 163.749 71.8961 166.662 72.8237C167.121 72.1433 167.65 71.4798 168.246 70.8367C164.785 69.7372 158.823 68.3285 154.766 70.0808C151.971 71.2833 150.857 73.0184 149.791 74.702C148.814 76.2882 147.739 77.9316 145.226 79.3289C144.249 79.9015 143.125 80.4112 141.962 80.9723C138.511 82.6273 134.494 84.5628 132.705 87.7008C133.573 88.4059 134.587 89.0446 135.726 89.602C136.644 86.3551 140.398 84.5456 144.317 82.6616Z" fill="#263238"/>
</svg>
