<svg width="29" height="19" viewBox="0 0 29 19" fill="none" xmlns="http://www.w3.org/2000/svg">
<path d="M18.561 14.3218C19.367 14.3218 20.1651 14.1631 20.9098 13.8546C21.6544 13.5462 22.331 13.0941 22.901 12.5241C23.4709 11.9542 23.923 11.2776 24.2315 10.5329C24.5399 9.78826 24.6987 8.99013 24.6987 8.18412C24.6987 7.3781 24.5399 6.57998 24.2315 5.83532C23.923 5.09066 23.4709 4.41405 22.901 3.84411C22.331 3.27417 21.6544 2.82207 20.9098 2.51362C20.1651 2.20517 19.367 2.04642 18.561 2.04642C16.9332 2.04642 15.372 2.69306 14.221 3.84411C13.0699 4.99515 12.4233 6.5563 12.4233 8.18412C12.4233 9.81194 13.0699 11.3731 14.221 12.5241C15.372 13.6752 16.9332 14.3218 18.561 14.3218ZM25.026 13.2027L28.6882 16.8649C28.7858 16.9593 28.8637 17.0722 28.9172 17.1971C28.9707 17.3219 28.9988 17.4562 28.9999 17.592C29.001 17.7278 28.975 17.8625 28.9235 17.9882C28.872 18.1139 28.7959 18.228 28.6998 18.324C28.6037 18.42 28.4894 18.4959 28.3637 18.5472C28.2379 18.5986 28.1032 18.6243 27.9674 18.6231C27.8316 18.6218 27.6974 18.5935 27.5726 18.5398C27.4478 18.4861 27.335 18.4081 27.2407 18.3103L23.5785 14.6481C21.9341 15.9246 19.865 16.5265 17.7925 16.3311C15.7199 16.1357 13.7998 15.1579 12.4228 13.5966C11.0459 12.0353 10.3157 10.008 10.3809 7.92728C10.4461 5.84658 11.3018 3.86893 12.7738 2.39693C14.2458 0.924924 16.2234 0.0692232 18.3041 0.00401919C20.3848 -0.0611848 22.4122 0.66901 23.9735 2.04596C25.5347 3.4229 26.5126 5.34309 26.708 7.41563C26.9033 9.48817 26.3015 11.5573 25.025 13.2017L25.026 13.2027Z" fill="#181725"/>
<rect width="9.05822" height="2.45429" rx="1.19961" fill="#181725"/>
<rect y="7.60891" width="6.6125" height="2.45429" rx="1.19961" fill="#181725"/>
<rect y="15.2182" width="9.05822" height="2.45429" rx="1.19961" fill="#181725"/>
</svg>
