<svg width="24" height="24" viewBox="0 0 24 24" fill="none" xmlns="http://www.w3.org/2000/svg">
<path d="M2.2 24C1.595 24 1.07727 23.7554 0.6468 23.2663C0.2156 22.7763 0 22.1875 0 21.5V16.5C0.605 16.5 1.1231 16.255 1.5543 15.765C1.98477 15.2758 2.2 14.6875 2.2 14C2.2 13.3125 1.98477 12.7238 1.5543 12.2337C1.1231 11.7446 0.605 11.5 0 11.5V6.5C0 5.8125 0.2156 5.22417 0.6468 4.735C1.07727 4.245 1.595 4 2.2 4H19.8C20.405 4 20.9231 4.245 21.3543 4.735C21.7848 5.22417 22 5.8125 22 6.5V11.5C21.395 11.5 20.8769 11.7446 20.4457 12.2337C20.0152 12.7238 19.8 13.3125 19.8 14C19.8 14.6875 20.0152 15.2758 20.4457 15.765C20.8769 16.255 21.395 16.5 22 16.5V21.5C22 22.1875 21.7848 22.7763 21.3543 23.2663C20.9231 23.7554 20.405 24 19.8 24H2.2ZM2.2 21.5H19.8V18.3125C19.1033 17.875 18.5625 17.2654 18.1775 16.4838C17.7925 15.7029 17.6 14.875 17.6 14C17.6 13.125 17.7925 12.2967 18.1775 11.515C18.5625 10.7342 19.1033 10.125 19.8 9.6875V6.5H2.2V9.6875C2.89667 10.125 3.4375 10.7342 3.8225 11.515C4.2075 12.2967 4.4 13.125 4.4 14C4.4 14.875 4.2075 15.7029 3.8225 16.4838C3.4375 17.2654 2.89667 17.875 2.2 18.3125V21.5ZM11 16.375L12.65 17.8125C12.87 18 13.0948 18.005 13.3243 17.8275C13.5531 17.6508 13.6217 17.4167 13.53 17.125L12.87 14.75L14.7125 13.125C14.9142 12.9583 14.9739 12.7292 14.8918 12.4375C14.8089 12.1458 14.63 12 14.355 12H12.21L11.5225 9.59375C11.4308 9.30208 11.2567 9.15625 11 9.15625C10.7433 9.15625 10.5692 9.30208 10.4775 9.59375L9.79 12H7.6175C7.36083 12 7.19143 12.1404 7.1093 12.4213C7.02643 12.7029 7.08583 12.9375 7.2875 13.125L9.075 14.75L8.415 17.1562C8.32333 17.4479 8.3875 17.6821 8.6075 17.8587C8.8275 18.0363 9.0475 18.0312 9.2675 17.8438L11 16.375Z" fill="black"/>
</svg>
