<svg width="24" height="24" viewBox="0 0 24 24" fill="none" xmlns="http://www.w3.org/2000/svg">
<path d="M8.02982 12.07C8.17064 12.0175 8.32209 11.9903 8.4752 11.9898C8.62831 11.9893 8.77997 12.0156 8.92123 12.0672C9.06249 12.1188 9.19047 12.1945 9.29762 12.29C9.40476 12.3855 9.48888 12.4988 9.54502 12.6231C9.60116 12.7475 9.62817 12.8804 9.62445 13.014C9.62073 13.1477 9.58637 13.2793 9.52338 13.4011C9.4604 13.523 9.37008 13.6325 9.25775 13.7234C9.14543 13.8142 9.01339 13.8845 8.86943 13.93C8.10375 14.1934 7.44659 14.6519 6.98346 15.2458C6.52033 15.8397 6.27267 16.5415 6.2727 17.26V19C6.2727 19.2652 6.39338 19.5196 6.6082 19.7071C6.82301 19.8946 7.11436 20 7.41815 20H16.5817C16.8855 20 17.1769 19.8946 17.3917 19.7071C17.6065 19.5196 17.7272 19.2652 17.7272 19V17.353C17.7273 16.6115 17.4693 15.8874 16.9873 15.2768C16.5054 14.6662 15.8222 14.1979 15.0285 13.934C14.8836 13.8901 14.7503 13.8213 14.6365 13.7316C14.5227 13.6419 14.4307 13.5332 14.3659 13.4119C14.3011 13.2905 14.2648 13.1591 14.2593 13.0253C14.2538 12.8916 14.2791 12.7582 14.3337 12.6331C14.3883 12.508 14.4711 12.3938 14.5772 12.2972C14.6833 12.2006 14.8106 12.1235 14.9515 12.0706C15.0923 12.0177 15.2439 11.9901 15.3972 11.9893C15.5505 11.9885 15.7025 12.0146 15.844 12.066C17.0715 12.4742 18.1279 13.1983 18.8733 14.1425C19.6188 15.0867 20.018 16.2063 20.018 17.353V19C20.018 19.7956 19.656 20.5587 19.0116 21.1213C18.3671 21.6839 17.4931 22 16.5817 22H7.41815C6.50678 22 5.63273 21.6839 4.98829 21.1213C4.34385 20.5587 3.98181 19.7956 3.98181 19L3.98181 17.26C3.98197 16.1402 4.36814 15.0463 5.0901 14.1206C5.81206 13.195 6.83638 12.4805 8.02982 12.07ZM11.9999 2C13.2151 2 14.3805 2.42143 15.2397 3.17157C16.099 3.92172 16.5817 4.93913 16.5817 6V8C16.5817 9.06087 16.099 10.0783 15.2397 10.8284C14.3805 11.5786 13.2151 12 11.9999 12C10.7848 12 9.61937 11.5786 8.76012 10.8284C7.90087 10.0783 7.41815 9.06087 7.41815 8V6C7.41815 4.93913 7.90087 3.92172 8.76012 3.17157C9.61937 2.42143 10.7848 2 11.9999 2ZM11.9999 4C11.3923 4 10.8097 4.21071 10.38 4.58579C9.9504 4.96086 9.70904 5.46957 9.70904 6V8C9.70904 8.53043 9.9504 9.03914 10.38 9.41421C10.8097 9.78929 11.3923 10 11.9999 10C12.6075 10 13.1902 9.78929 13.6198 9.41421C14.0495 9.03914 14.2908 8.53043 14.2908 8V6C14.2908 5.46957 14.0495 4.96086 13.6198 4.58579C13.1902 4.21071 12.6075 4 11.9999 4Z" fill="#181725"/>
</svg>
